<svg width="24" height="25" viewBox="0 0 24 25" fill="none" xmlns="http://www.w3.org/2000/svg">
<path d="M20.436 4.83984H3.56402C3.25252 4.83984 3 5.0637 3 5.33984C3 5.61599 3.25252 5.83984 3.56402 5.83984H20.436C20.7475 5.83984 21 5.61599 21 5.33984C21 5.0637 20.7475 4.83984 20.436 4.83984Z" fill="#FFFAF5"/>
<path d="M20.436 11.8398H3.56402C3.25252 11.8398 3 12.0637 3 12.3398C3 12.616 3.25252 12.8398 3.56402 12.8398H20.436C20.7475 12.8398 21 12.616 21 12.3398C21 12.0637 20.7475 11.8398 20.436 11.8398Z" fill="#FFFAF5"/>
<path d="M3.56402 18.8398H20.436C20.7475 18.8398 21 19.0637 21 19.3398C21 19.616 20.7475 19.8398 20.436 19.8398H3.56402C3.25252 19.8398 3 19.616 3 19.3398C3 19.0637 3.25252 18.8398 3.56402 18.8398Z" fill="#FFFAF5"/>
</svg>
