<?xml version="1.0" encoding="UTF-8"?>
<svg width="146px" height="161px" viewBox="0 0 146 161" version="1.1" xmlns="http://www.w3.org/2000/svg" xmlns:xlink="http://www.w3.org/1999/xlink">
    <defs>
        <linearGradient x1="0%" y1="100%" x2="61.7414686%" y2="38.2385254%" id="linearGradient-1">
            <stop stop-color="#FFFAF5" stop-opacity="0.2" offset="0%"></stop>
            <stop stop-color="#FFFAF5" offset="100%"></stop>
        </linearGradient>
    </defs>
    <g id="mobile-app" stroke="none" stroke-width="1" fill="none" fill-rule="evenodd">
        <g id="iPhone-SE-Copy-20" transform="translate(-87.000000, -72.000000)">
            <g id="logos/picular/vertical" transform="translate(87.000000, 72.000000)">
                <g id="Stacked-Group">
                    <g id="logos/picular/symbol" transform="translate(25.000000, 0.000000)" fill-rule="nonzero">
                        <path d="M0,48 L32,48 C32,56.836556 39.163444,64 48,64 C56.836556,64 64,56.836556 64,48 C64,39.163444 56.836556,32 48,32 L48,0 C74.509668,0 96,21.490332 96,48 C96,74.509668 74.509668,96 48,96 C21.490332,96 0,74.509668 0,48 Z" id="Path" fill="url(#linearGradient-1)"></path>
                        <path d="M32,48 L32,85.7444592 C32,89.3105342 31.6286976,90.6036791 30.9314692,91.9073828 C30.2342408,93.2110865 29.2110865,94.2342408 27.9073828,94.9314692 C26.6036791,95.6286976 25.3105342,96 21.7444592,96 L10.2555408,96 C6.68946584,96 5.39632089,95.6286976 4.09261719,94.9314692 C2.78891348,94.2342408 1.76575919,93.2110865 1.06853082,91.9073828 C0.371302445,90.6036791 5.30538576e-13,89.3105342 5.30538576e-13,85.7444592 L2.27373675e-13,48 C-7.57912251e-14,21.490332 21.490332,0 48,0 C68.8995012,0 86.6793261,13.356922 93.2687087,32 L48,32 C39.163444,32 32,39.163444 32,48 Z" id="Path" fill="#FFFAF5"></path>
                    </g>
                    <g id="logos/picular/text" transform="translate(0.000000, 128.000000)" fill="#FFFAF5" fill-rule="nonzero">
                        <path d="M2.84217094e-14,2 C2.84217094e-14,0.8954305 0.8954305,1.27897692e-13 2,1.27897692e-13 L13.29075,1.27897692e-13 C19.511,1.27897692e-13 23.7175,4.5645 23.7175,11.0085 C23.7175,17.4525 19.511,22.1065 13.29075,22.1065 L8.83125,22.1065 C8.27896525,22.1065 7.83125,22.5542153 7.83125,23.1065 L7.83125,29.99625 C7.83125,31.1008195 6.9358195,31.99625 5.83125,31.99625 L2,31.99625 C0.8954305,31.99625 2.84217094e-14,31.1008195 2.84217094e-14,29.99625 L2.84217094e-14,2 Z M8.83125,15.394 L11.67975,15.394 C14.4095,15.394 15.752,13.55925 15.752,11.0085 C15.752,8.45775 14.4095,6.7125 11.814,6.7125 L8.83125,6.7125 C8.27896525,6.7125 7.83125,7.16021525 7.83125,7.7125 L7.83125,14.394 C7.83125,14.9462847 8.27896525,15.394 8.83125,15.394 Z M26.6395,4.04125 L26.6395,2 C26.6395,0.8954305 27.5349305,-4.26325641e-14 28.6395,-4.26325641e-14 L32.20225,-4.26325641e-14 C33.3068195,-4.26325641e-14 34.20225,0.8954305 34.20225,2 L34.20225,4.04125 C34.20225,5.1458195 33.3068195,6.04125 32.20225,6.04125 L28.6395,6.04125 C27.5349305,6.04125 26.6395,5.1458195 26.6395,4.04125 Z M26.55,29.99625 L26.55,10.95 C26.55,9.8454305 27.4454305,8.95 28.55,8.95 L32.29175,8.95 C33.3963195,8.95 34.29175,9.8454305 34.29175,10.95 L34.29175,29.99625 C34.29175,31.1008195 33.3963195,31.99625 32.29175,31.99625 L28.55,31.99625 C27.4454305,31.99625 26.55,31.1008195 26.55,29.99625 Z M37.81925,20.45075 C37.81925,14.27525 42.38375,8.413 50.6625,8.413 C53.9850037,8.413 56.5995545,9.149271 58.5061524,10.621813 C59.3216027,11.2516202 59.5251325,12.3978785 58.976349,13.269918 L57.7429236,15.2298859 C57.1646141,16.1488434 55.9587304,16.4385328 55.0260959,15.8825493 C53.8792242,15.1988498 52.5887755,14.857 51.15475,14.857 C47.48525,14.857 45.6505,17.6315 45.6505,20.36125 C45.6505,23.091 47.53,26.08925 51.42325,26.08925 C52.9655991,26.08925 54.4848759,25.6124236 55.9810805,24.6587708 C56.9125341,24.0650857 58.1489045,24.3388955 58.7425938,25.2703464 C58.7739211,25.3194964 58.8030849,25.3699924 58.8300017,25.4216897 L59.8579134,27.3959353 C60.2975637,28.240343 60.0810708,29.2776161 59.34036,29.8756666 C57.146007,31.6473889 54.253387,32.53325 50.6625,32.53325 C42.4285,32.53325 37.81925,26.80525 37.81925,20.45075 Z M63.36375,23.8965 L63.36375,10.95 C63.36375,9.8454305 64.2591805,8.95 65.36375,8.95 L69.1055,8.95 C70.2100695,8.95 71.1055,9.8454305 71.1055,10.95 L71.1055,22.4645 C71.1055,24.6125 71.95575,25.5075 73.56675,25.5075 C76.87825,25.5075 78.4445,22.59875 78.4445,19.153 L78.4445,10.95 C78.4445,9.8454305 79.3399305,8.95 80.4445,8.95 L84.18625,8.95 C85.2908195,8.95 86.18625,9.8454305 86.18625,10.95 L86.18625,29.99625 C86.18625,31.1008195 85.2908195,31.99625 84.18625,31.99625 L80.75775,31.99625 C79.6531805,31.99625 78.75775,31.1008195 78.75775,29.99625 L78.75775,29.9825 C78.75775,29.22175 78.84725,28.5505 78.84725,28.5505 L78.75775,28.5505 C77.50475,31.01175 74.64075,32.53325 71.553,32.53325 C66.9885,32.53325 63.36375,30.38525 63.36375,23.8965 Z M90.601,23.49375 L90.601,2 C90.601,0.8954305 91.4964305,2.4158453e-13 92.601,2.4158453e-13 L96.34275,2.4158453e-13 C97.4473195,2.4158453e-13 98.34275,0.8954305 98.34275,2 L98.34275,22.4645 C98.34275,24.65725 98.7455,25.418 100.49075,25.418 C101.009765,25.418 101.430509,25.8387447 101.430509,26.3577595 L101.430505,30.2174384 C101.430505,31.3096753 100.554237,32.1999155 99.4621365,32.2171928 C99.3438386,32.2190643 99.2242931,32.22 99.1035,32.22 C94.9865,32.22 90.601,31.2355 90.601,23.49375 Z M103.7,25.10475 C103.7,18.39225 113.50025,17.6315 117.08025,17.6315 C117.253253,17.6315 117.3935,17.4912532 117.3935,17.31825 L117.3935,17.22875 C117.3935,15.3045 115.91675,14.678 113.9925,14.678 C112.572749,14.678 111.081035,15.0697977 109.517359,15.8533931 C108.529846,16.3482572 107.328142,15.9488885 106.833276,14.9613766 C106.831043,14.9569199 106.828826,14.9524549 106.826626,14.9479817 L105.866402,12.9955312 C105.397758,12.0426221 105.75553,10.8895917 106.681277,10.3693458 C109.002078,9.06511528 111.692736,8.413 114.75325,8.413 C121.242,8.413 125.13525,11.94825 125.13525,17.8105 L125.13525,29.99625 C125.13525,31.1008195 124.239819,31.99625 123.13525,31.99625 L119.452,31.99625 C118.685843,31.99625 118.06475,31.375157 118.06475,30.609 C118.06475,29.84825 118.15425,29.177 118.15425,29.177 L118.06475,29.177 C118.06475,29.177 116.36425,32.53325 111.53125,32.53325 C107.23525,32.53325 103.7,29.66925 103.7,25.10475 Z M111.4865,24.702 C111.4865,25.776 112.15775,26.62625 113.67925,26.62625 C115.693,26.62625 117.483,24.4335 117.483,22.554 C117.483,22.2821378 117.262612,22.06175 116.99075,22.06175 L116.767,22.06175 C114.30575,22.06175 111.4865,22.77775 111.4865,24.702 Z M129.4285,29.99625 L129.4285,10.95 C129.4285,9.8454305 130.323931,8.95 131.4285,8.95 L134.857,8.95 C135.961569,8.95 136.857,9.8454305 136.857,10.95 L136.857,12.84325 C136.857,13.604 136.7675,14.27525 136.7675,14.27525 L136.857,14.27525 C137.8415,11.14275 140.75025,8.54725 144.196,8.54725 C144.690294,8.54725 145.090999,8.94795459 145.090999,9.44224875 L145.091006,14.5437441 C145.091006,15.4087633 144.389769,16.11 143.52475,16.11 C141.69,16.11 138.69175,16.69175 137.573,20.1375 C137.3045,20.98775 137.17025,22.017 137.17025,23.27 L137.17025,29.99625 C137.17025,31.1008195 136.274819,31.99625 135.17025,31.99625 L131.4285,31.99625 C130.323931,31.99625 129.4285,31.1008195 129.4285,29.99625 Z" id="Logo-Org---3.-Flattened-Copy"></path>
                    </g>
                </g>
            </g>
        </g>
    </g>
</svg>