<svg width="64" height="64" viewBox="0 0 64 64" fill="none" xmlns="http://www.w3.org/2000/svg">
<path fill-rule="evenodd" clip-rule="evenodd" d="M17.8567 5.04741C18.0258 4.94981 18.2419 5.00774 18.3395 5.1768L21.0961 9.95151C23.4825 7.79671 26.7061 6.34777 30.3127 5.99993H33.6852C37.2921 6.34788 40.5157 7.79695 42.902 9.9518L45.659 5.17679C45.7566 5.00773 45.9727 4.94981 46.1418 5.04742C46.3109 5.14503 46.3688 5.3612 46.2712 5.53026L43.4291 10.4528C45.6984 12.7246 47.0865 15.6796 47.1316 18.9161H16.8664C16.9114 15.6793 18.2996 12.7242 20.5691 10.4525L17.7273 5.53025C17.6297 5.36119 17.6876 5.14502 17.8567 5.04741ZM27.4908 12.9123C27.4936 13.8487 26.7186 14.6101 25.7595 14.6127C24.8009 14.615 24.0214 13.8581 24.0186 12.9217V12.9123C24.016 11.9756 24.791 11.2144 25.7498 11.2118C26.7084 11.2093 27.488 11.9659 27.4908 12.9028V12.9123ZM40.4503 12.9123C40.4531 13.8487 39.6781 14.6101 38.719 14.6127C37.7604 14.615 36.9809 13.8581 36.9781 12.9217V12.9123C36.9755 11.9756 37.7505 11.2144 38.7093 11.2118C39.6679 11.2093 40.4475 11.9659 40.4503 12.9028V12.9123Z" fill="#9B9691"/>
<path d="M16.7474 20.7349C16.7474 20.6048 16.7571 20.4762 16.7682 20.3489H47.2349C47.2457 20.4757 47.2504 20.6048 47.2504 20.7349V42.5454C47.2504 44.8908 45.3938 46.7807 43.0887 46.7807H42.9249V55.4075C42.9249 57.2608 41.4224 58.7631 39.569 58.7631C37.7159 58.7631 36.2135 57.2608 36.2135 55.4075V46.7807H27.7851V55.4076C27.7851 57.2609 26.2826 58.7632 24.4293 58.7632C22.5762 58.7632 21.0737 57.2609 21.0737 55.4076V46.7807H20.9089C18.6041 46.7807 16.7474 44.891 16.7474 42.5454V20.7349Z" fill="#9B9691"/>
<path d="M11.3558 22.2898C13.2089 22.2898 14.7114 23.7923 14.7114 25.6456V40.0411C14.7114 41.8945 13.2089 43.3969 11.3558 43.3969C9.50247 43.3969 8 41.8945 8 40.0413V25.6458C7.99976 23.7925 9.50223 22.2898 11.3558 22.2898Z" fill="#9B9691"/>
<path d="M52.6428 22.2898C54.4959 22.2898 55.9984 23.7923 55.9984 25.6456V40.0411C55.9984 41.8945 54.4959 43.3969 52.6428 43.3969C50.7895 43.3969 49.287 41.8945 49.287 40.0413V25.6458C49.287 23.7925 50.7895 22.2898 52.6428 22.2898Z" fill="#9B9691"/>
</svg>
