<svg width="64" height="64" viewBox="0 0 64 64" fill="none" xmlns="http://www.w3.org/2000/svg">
<path d="M28.1096 42.9092C28.0631 42.9323 28.013 42.9571 27.9572 42.9853L28.3057 43.366L28.307 43.3675C28.6571 43.7501 28.9984 44.1232 29.3418 44.4949C29.3717 44.5272 29.4388 44.5369 29.4887 44.5369C29.7347 44.5344 29.9808 44.5332 30.2268 44.532C30.8602 44.529 31.4935 44.526 32.1268 44.4995C33.2592 44.4519 34.3311 44.1735 35.3111 43.5791C35.9811 43.1729 36.5488 42.6456 37.1024 42.1014C37.2168 41.989 37.2549 41.877 37.2601 41.72C37.2923 40.7605 37.3308 39.8013 37.3812 38.8428C37.4027 38.4363 37.5597 38.2921 37.9698 38.252C38.096 38.2397 38.2224 38.2351 38.3488 38.2305C38.407 38.2283 38.4654 38.2262 38.5234 38.2233C38.7218 38.2132 38.7996 38.1611 38.8433 37.9657C38.8931 37.7442 38.9319 37.5192 38.9612 37.2935C39.127 36.021 39.0944 34.7631 38.6915 33.5291C38.1378 31.8309 37.4294 30.1949 36.6722 28.5808C36.3177 27.8251 35.9333 27.0837 35.5489 26.3424C35.4743 26.1984 35.3995 26.0541 35.3251 25.9101C35.1786 25.6258 35.0398 25.5844 34.7333 25.6802C34.6296 25.7118 34.5286 25.7516 34.4311 25.799C34.2443 25.8917 34.0588 25.9865 33.8733 26.0813C33.7596 26.1394 33.646 26.1975 33.5322 26.255C33.3236 26.3603 33.1148 26.4651 32.906 26.5699C32.4562 26.7957 32.0064 27.0214 31.5591 27.2523C31.1302 27.4734 30.7156 27.4288 30.2944 27.2334C29.7049 26.9595 29.2167 26.5485 28.7471 26.1111C28.7154 26.0808 28.6828 26.0524 28.6458 26.0203L28.6005 25.9808C28.6005 26.0508 28.6025 26.1178 28.6045 26.1826C28.6086 26.3166 28.6124 26.4411 28.5972 26.5631C28.4955 27.4131 28.1729 28.2216 27.6615 28.9081C27.2244 29.4973 26.9189 30.1393 26.6672 30.817C26.2952 31.8176 25.9187 32.8129 25.3937 33.7506C24.9569 34.5303 24.7644 35.3927 24.7016 36.2874C24.6192 37.454 24.9889 38.3995 25.9526 39.1043C26.6356 39.6036 27.2984 40.1309 27.9589 40.6602C28.2072 40.8531 28.4339 41.0724 28.635 41.3142C29.0646 41.85 28.9206 42.4763 28.3155 42.8046C28.2507 42.8393 28.1844 42.8721 28.1096 42.9092Z" fill="#9B9691"/>
<path d="M34.0414 23.577C34.0654 23.5504 34.0894 23.524 34.1134 23.4977C34.1653 23.4407 34.2169 23.384 34.2668 23.3259C34.7228 22.7927 34.5567 21.9235 33.946 21.6023C33.7597 21.5046 33.5877 21.5079 33.4034 21.5942C33.0357 21.7668 32.7846 22.2312 32.8357 22.6631C32.8477 22.767 32.8664 22.8699 32.8876 22.9865C32.8979 23.0432 32.9088 23.1032 32.9197 23.1679C32.8545 23.1396 32.7913 23.1135 32.73 23.0882C32.5839 23.0278 32.4485 22.9719 32.3211 22.9012C32.2504 22.8624 32.1908 22.7641 32.1697 22.6813C31.9742 21.9362 32.0687 21.2398 32.6103 20.662C33.3174 19.9094 34.2603 20.0461 34.8576 20.7767C35.4764 21.5323 35.4836 22.8507 34.615 23.5685C34.3997 23.7467 34.3039 23.7565 34.0414 23.577Z" fill="#9B9691"/>
<path d="M30.0853 22.9303C30.0842 22.9963 30.0831 23.0646 30.0831 23.1364C30.1388 23.1031 30.1903 23.071 30.2395 23.0403C30.3304 22.9836 30.4132 22.9319 30.4997 22.8873C30.5887 22.8453 30.6642 22.7794 30.7178 22.6969C30.7714 22.6144 30.801 22.5186 30.8032 22.4202C30.8339 21.8711 30.6977 21.3614 30.3649 20.9249C29.8965 20.3104 29.1122 20.3276 28.6563 20.9513C28.2908 21.4503 28.2026 22.0193 28.2765 22.6205C28.3364 23.111 28.5784 23.5067 28.9367 23.8363C28.9872 23.8832 29.0901 23.9451 29.1249 23.9249C29.243 23.8562 29.352 23.7721 29.4488 23.6975C29.4804 23.6731 29.5107 23.6497 29.5395 23.6282C29.4846 23.5943 29.4292 23.5649 29.3759 23.5366C29.2645 23.4776 29.162 23.4233 29.0911 23.3416C28.753 22.9531 28.6781 22.4867 28.8152 22.0001C28.9298 21.5978 29.3445 21.4711 29.6789 21.7174C29.9525 21.917 30.0584 22.2101 30.0809 22.5358C30.0897 22.6632 30.0876 22.7915 30.0853 22.9303Z" fill="#9B9691"/>
<path fill-rule="evenodd" clip-rule="evenodd" d="M56 32C56 45.2548 45.2548 56 32 56C18.7452 56 8 45.2548 8 32C8 18.7452 18.7452 8 32 8C45.2548 8 56 18.7452 56 32ZM34.6001 16.3363C35.7339 16.7929 36.5465 17.5743 37.0933 18.6654C37.6503 19.7763 37.8405 20.9654 37.9317 22.1829C37.9527 22.4644 37.9719 22.746 37.9912 23.0277C38.0322 23.628 38.0732 24.2285 38.1313 24.8275C38.1981 25.5144 38.4 26.1638 38.8104 26.7354C39.525 27.7247 40.2343 28.7176 40.9385 29.7142C41.7811 30.906 42.6096 32.1081 43.2509 33.4236L43.2999 33.5241C43.5015 33.9369 43.7067 34.3571 43.7759 34.8146C43.9473 35.9507 43.9355 37.0971 43.6313 38.2201C43.5916 38.3663 43.6219 38.4621 43.7196 38.566C44.0292 38.8825 44.2331 39.2873 44.3032 39.7245C44.3374 39.9385 44.3619 40.1544 44.3788 40.3707C44.4228 40.9341 44.6807 41.3706 45.1556 41.6734C45.309 41.7714 45.4677 41.8608 45.6265 41.9502C45.7298 42.0083 45.8332 42.0666 45.935 42.1271C46.0817 42.2143 46.2292 42.302 46.36 42.4095C46.6323 42.6329 46.7193 42.9257 46.6323 43.2716C46.5691 43.5221 46.4483 43.7364 46.2496 43.8993C46.0891 44.0368 45.9168 44.1601 45.7347 44.2676C45.3125 44.503 44.8749 44.7306 44.4339 44.96C43.237 45.5826 42.015 46.2182 41.0082 47.0578C40.5193 47.4666 40.0259 47.8626 39.3654 47.9551C38.9426 48.0143 38.4673 48.0317 38.0664 47.9014C37.9499 47.8635 37.8334 47.8257 37.7281 47.7675C37.3314 47.5483 37.0246 47.2321 36.7803 46.8487C36.7155 46.7468 36.6097 46.623 36.5045 46.6025C36.4223 46.5865 36.3401 46.5701 36.2577 46.5537C35.7863 46.4597 35.3122 46.3651 34.8356 46.3374C33.3729 46.255 31.9073 46.2215 30.4491 46.427C30.0027 46.4898 29.559 46.5706 29.1155 46.6513L29.0864 46.6566C29.0141 46.6699 28.9164 46.7084 28.8838 46.7654C28.6487 47.1663 28.2992 47.4321 27.8915 47.6223C27.4127 47.8457 26.9046 47.8323 26.4082 47.7043C25.6744 47.5154 24.9439 47.3103 24.2212 47.0823L24.1978 47.0749C23.135 46.7399 22.0752 46.4059 20.9685 46.2381C20.3799 46.1488 19.7934 46.0361 19.2153 45.8961C18.9355 45.8283 18.6632 45.6981 18.4144 45.5508C18.0327 45.3258 17.9301 45.0327 18.0437 44.6093C18.0913 44.4308 18.1516 44.2496 18.2126 44.0665C18.3755 43.5771 18.543 43.0738 18.4844 42.5727C18.4617 42.3796 18.4164 42.1899 18.371 42.0001C18.3182 41.7788 18.2653 41.5574 18.2483 41.3305C18.2072 40.7823 18.4701 40.3938 18.9951 40.2358C19.2285 40.1654 19.4641 40.1021 19.6998 40.0388C19.9349 39.9756 20.1704 39.9123 20.4034 39.8421C20.9134 39.687 21.3626 39.4333 21.6596 38.9705C21.9035 38.5907 22.1534 38.2188 22.5015 37.9211C22.5556 37.8752 22.5823 37.7534 22.5667 37.6781C22.4422 37.0766 22.4869 36.4988 22.7331 35.9295C22.7933 35.79 22.8539 35.6506 22.9144 35.5112C23.2423 34.756 23.5704 34.0004 23.8558 33.2291C24.3684 31.8472 24.9872 30.533 25.9177 29.3768C26.2511 28.9623 26.5773 28.5421 26.9035 28.1219C27.0896 27.8822 27.2757 27.6424 27.4632 27.4038C27.7166 27.081 27.8387 26.712 27.8657 26.3068C27.9462 25.1014 27.8885 23.8993 27.7889 22.6975C27.7061 21.6849 27.6605 20.6716 27.8038 19.6604C27.9237 18.8165 28.1911 18.0371 28.8099 17.416C29.2871 16.9369 29.8648 16.6158 30.4957 16.4014C31.8044 15.956 33.2927 15.8094 34.6001 16.3363Z" fill="#9B9691"/>
</svg>
