<svg width="79" height="80" viewBox="0 0 79 80" fill="none"
    xmlns="http://www.w3.org/2000/svg">
    <defs>
        <linearGradient id="paint0_linear" x1="24.414" y1="103.786" x2="73.3771" y2="55.0544" gradientUnits="userSpaceOnUse">
            <stop stop-color="#FFFAF5" stop-opacity="0.2"/>
            <stop offset="1" stop-color="#FFFAF5"/>
        </linearGradient>
    </defs>
    <path d="M0.0478516 39.6522H26.3492C26.3492 46.9519 32.237 52.8696 39.4999 52.8696C46.7628 52.8696 52.6506 46.9519 52.6506 39.6522C52.6506 32.3524 46.7628 26.4348 39.4999 26.4348V0C61.2887 0 78.952 17.7529 78.952 39.6522C78.952 61.5515 61.2887 79.3044 39.4999 79.3044C17.7111 79.3044 0.0478516 61.5515 0.0478516 39.6522Z" fill="url(#paint0_linear)"/>
    <path d="M26.3492 39.6522V70.8324C26.3492 73.7783 26.044 74.8465 25.471 75.9235C24.8979 77.0005 24.057 77.8457 22.9854 78.4217C21.9139 78.9976 20.851 79.3044 17.92 79.3044H8.47706C5.54604 79.3044 4.48318 78.9976 3.41165 78.4217C2.34011 77.8457 1.49916 77.0005 0.926096 75.9235C0.353032 74.8465 0.0478516 73.7783 0.0478516 70.8324L0.0478516 39.6522C0.0478516 17.7529 17.7111 0 39.4999 0C56.6776 0 71.2911 11.034 76.7071 26.4348H39.4999C32.237 26.4348 26.3492 32.3524 26.3492 39.6522Z" fill="#FFFAF5"/>
</svg>
