<svg width="64" height="64" viewBox="0 0 64 64" fill="none" xmlns="http://www.w3.org/2000/svg">
    <path
        d="M33.4921 11.6534C36.1985 8.6295 40.5645 7.82815 40.8027 8.02908C41.041 8.22882 41.1426 12.7304 38.5028 15.857C35.8632 18.985 31.4306 19.6823 31.1924 19.4814C30.954 19.2817 30.7859 14.6774 33.4921 11.6534Z"
        fill="#9B9691" />
    <path
        d="M32.4935 21.2299H32.4327C31.4322 21.213 30.0733 20.7718 28.6054 20.2952C26.6257 19.6523 24.4475 18.945 22.6822 19.1275C21.1533 19.2864 16.2663 20.3002 13.3194 24.9944C12.2858 26.6414 11.4903 28.7425 11.1621 31.4185C11.0442 32.3844 10.9881 33.4251 11.0021 34.5451C11.0162 35.6689 11.106 36.7702 11.2602 37.8426C11.5897 40.1307 12.2111 42.2891 13.0134 44.2667C13.9034 46.4601 15.0154 48.4317 16.1998 50.1067C18.8209 53.8152 21.7899 55.9607 23.4614 55.9981C25.321 56.0398 27.0491 55.3792 28.6341 54.7732C29.9798 54.2588 31.2223 53.7837 32.3545 53.8116C32.3802 53.8174 32.4071 53.8198 32.4327 53.8174L32.4632 53.8162L32.4935 53.8174C32.5192 53.8198 32.5449 53.8174 32.5694 53.8116C33.7022 53.7827 34.9456 54.2581 36.2926 54.773C37.8776 55.379 39.606 56.0398 41.4661 55.9981C43.1375 55.9607 46.1066 53.8152 48.7278 50.1067C49.911 48.4317 51.024 46.4601 51.914 44.2667C52.046 43.9396 52.1734 43.6079 52.296 43.2715C49.7357 42.4691 47.6274 40.4659 46.4898 37.8426C45.9033 36.4923 45.5752 34.9774 45.5752 33.3772C45.5752 32.7022 45.6336 32.0481 45.7458 31.4185C46.2293 28.6958 47.7116 26.4487 49.7567 24.9944C50.1223 24.7351 50.5055 24.5003 50.9038 24.2925C48.1449 19.9451 43.6562 19.2747 42.244 19.1275C40.4796 18.945 38.3015 19.6522 36.3216 20.295C34.8534 20.7717 33.4942 21.213 32.4935 21.2299Z"
        fill="#9B9691" />
</svg>