<svg width="947" height="872" viewBox="0 0 947 872" fill="none" xmlns="http://www.w3.org/2000/svg">
<path d="M778.936 98.5532C780.003 98.8391 784.963 99.2412 785.249 98.1743C785.535 97.1073 781.038 94.9754 779.971 94.6895C778.904 94.4036 777.807 95.0368 777.521 96.1037C777.236 97.1707 777.869 98.2673 778.936 98.5532Z" fill="#CC9600"/>
<path d="M781.555 87.1372C782.336 87.9182 786.43 90.7466 787.211 89.9656C787.992 89.1846 785.164 85.0898 784.383 84.3087C783.602 83.5277 782.336 83.5277 781.555 84.3087C780.773 85.0898 780.773 86.3561 781.555 87.1372Z" fill="#CC9600"/>
<path d="M821.593 108.176H829.801C834.265 108.176 836.281 106.88 837.289 102.992L837.721 101.264C840.457 90.032 862.201 84.992 862.201 63.104C862.201 44.528 844.777 34.88 828.649 34.88C817.849 34.88 809.785 38.624 804.745 41.936C800.425 44.672 800.569 48.272 803.449 52.448L806.905 57.632C809.641 61.664 814.105 61.664 818.569 59.504C820.873 58.352 823.465 57.488 826.057 57.488C831.529 57.488 836.281 61.088 836.281 65.984C836.281 77.216 813.673 83.552 813.673 98.816V100.256C813.673 105.44 816.409 108.176 821.593 108.176ZM814.249 132.08C814.249 137.264 816.985 140 822.169 140H829.081C834.265 140 837.001 137.264 837.001 132.08V126.32C837.001 121.136 834.265 118.4 829.081 118.4H822.169C816.985 118.4 814.249 121.136 814.249 126.32V132.08Z" fill="#997000"/>
<path d="M885.314 98.5532C884.247 98.8391 879.287 99.2412 879.001 98.1743C878.715 97.1073 883.212 94.9754 884.279 94.6895C885.346 94.4036 886.443 95.0368 886.729 96.1037C887.014 97.1707 886.381 98.2673 885.314 98.5532Z" fill="#CC9600"/>
<path d="M882.695 87.1372C881.914 87.9182 877.82 90.7466 877.039 89.9656C876.258 89.1846 879.086 85.0898 879.867 84.3087C880.648 83.5277 881.914 83.5277 882.695 84.3087C883.477 85.0898 883.477 86.3561 882.695 87.1372Z" fill="#CC9600"/>
<path d="M2.5 875C54 768.5 245 864.5 273.5 719" stroke="#997000" stroke-width="5" stroke-miterlimit="16" stroke-linecap="round" stroke-linejoin="round" stroke-dasharray="2 24"/>
<path d="M355.002 197C347.5 305.5 533.502 225 541.002 305.5" stroke="#997000" stroke-width="5" stroke-miterlimit="16" stroke-linecap="round" stroke-linejoin="round" stroke-dasharray="2 24"/>
<path d="M284.418 600.706C284.808 600.316 285.442 600.316 285.832 600.706L295.418 610.292C296.048 610.922 295.602 611.999 294.711 611.999H275.539C274.648 611.999 274.202 610.922 274.832 610.292L284.418 600.706Z" fill="#373737"/>
<path d="M269.917 636.117C270.637 636.603 271.861 637.215 273.607 637.215C276.829 637.215 278.377 635.019 278.377 632.823C278.377 631.023 277.171 629.511 275.263 629.097L277.423 626.613C277.747 626.235 277.873 625.893 277.873 625.389V625.101C277.873 624.471 277.531 624.129 276.883 624.129H270.745C270.097 624.129 269.755 624.471 269.755 625.119V625.839C269.755 626.487 270.097 626.829 270.745 626.829H272.833C273.643 626.829 274.057 626.739 274.057 626.739V626.775C274.057 626.775 273.553 627.243 272.941 627.981L271.771 629.403C271.411 629.817 271.321 630.267 271.537 630.681L271.627 630.861C271.879 631.365 272.167 631.545 272.743 631.545H272.815C274.201 631.545 275.209 631.959 275.209 632.967C275.209 633.669 274.543 634.245 273.373 634.245C272.653 634.245 272.023 633.975 271.537 633.705C270.979 633.363 270.529 633.399 270.187 633.957L269.701 634.749C269.377 635.271 269.413 635.757 269.917 636.117ZM281.102 633.885H285.818V636.009C285.818 636.657 286.16 636.999 286.808 636.999H287.942C288.59 636.999 288.932 636.657 288.932 636.009V633.885H289.706C290.192 633.885 290.462 633.543 290.462 632.895V632.265C290.462 631.617 290.12 631.275 289.472 631.275H288.932V625.119C288.932 624.471 288.59 624.129 287.942 624.129H285.854C285.314 624.129 284.954 624.327 284.666 624.777L280.472 631.419C280.202 631.815 280.112 632.157 280.112 632.643V632.895C280.112 633.543 280.454 633.885 281.102 633.885ZM283.316 631.275V631.239L285.26 628.287C285.62 627.747 285.89 626.955 285.89 626.955H285.926C285.926 626.955 285.818 627.693 285.818 628.395V631.275H283.316ZM292.515 636.009C292.515 636.657 292.857 636.999 293.505 636.999H300.093C300.741 636.999 301.083 636.657 301.083 636.009V635.289C301.083 634.641 300.741 634.299 300.093 634.299H298.329V625.119C298.329 624.471 297.987 624.129 297.339 624.129H296.313C295.809 624.129 295.467 624.273 295.089 624.615L292.857 626.703C292.389 627.153 292.371 627.639 292.821 628.107L293.289 628.611C293.721 629.079 294.207 629.097 294.675 628.665L294.837 628.521C295.053 628.341 295.233 627.945 295.233 627.945H295.269C295.269 627.945 295.251 628.449 295.251 628.935V634.299H293.505C292.857 634.299 292.515 634.641 292.515 635.289V636.009Z" fill="#997000"/>
<rect x="254.625" y="589.999" width="61" height="58" rx="6" stroke="#CC9600" stroke-width="4"/>
<path d="M178.936 689.705C180.003 689.99 184.963 690.393 185.249 689.326C185.535 688.259 181.038 686.127 179.971 685.841C178.904 685.555 177.807 686.188 177.521 687.255C177.236 688.322 177.869 689.419 178.936 689.705Z" fill="#CC9600"/>
<path d="M181.555 678.289C182.336 679.07 186.43 681.898 187.211 681.117C187.992 680.336 185.164 676.241 184.383 675.46C183.602 674.679 182.336 674.679 181.555 675.46C180.773 676.241 180.773 677.507 181.555 678.289Z" fill="#CC9600"/>
<path d="M199.029 691.111C199.029 692.119 199.561 692.651 200.569 692.651H202.389C203.397 692.651 203.929 692.119 203.929 691.111V674.171C203.929 673.163 203.397 672.631 202.389 672.631H200.569C199.561 672.631 199.029 673.163 199.029 674.171V691.111ZM208.926 691.111C208.926 692.119 209.458 692.651 210.466 692.651H212.286C213.294 692.651 213.826 692.119 213.826 691.111V686.463H217.242C221.134 686.463 223.766 683.551 223.766 679.519C223.766 675.487 221.134 672.631 217.242 672.631H210.466C209.458 672.631 208.926 673.163 208.926 674.171V691.111ZM213.826 682.263V676.831H216.318C217.942 676.831 218.782 677.923 218.782 679.519C218.782 681.115 217.942 682.263 216.234 682.263H213.826ZM227.3 691.111C227.3 692.119 227.832 692.651 228.84 692.651H230.66C231.668 692.651 232.2 692.119 232.2 691.111V684.811H239.48V691.111C239.48 692.119 240.012 692.651 241.02 692.651H242.84C243.848 692.651 244.38 692.119 244.38 691.111V674.171C244.38 673.163 243.848 672.631 242.84 672.631H241.02C240.012 672.631 239.48 673.163 239.48 674.171V680.639H232.2V674.171C232.2 673.163 231.668 672.631 230.66 672.631H228.84C227.832 672.631 227.3 673.163 227.3 674.171V691.111ZM248.329 682.515C248.329 688.395 252.585 692.987 258.801 692.987C265.017 692.987 269.273 688.395 269.273 682.515C269.273 676.775 265.017 672.295 258.801 672.295C252.585 672.295 248.329 676.775 248.329 682.515ZM253.397 682.515C253.397 679.239 255.637 676.775 258.801 676.775C261.965 676.775 264.205 679.239 264.205 682.515C264.205 685.931 261.965 688.507 258.801 688.507C255.637 688.507 253.397 685.931 253.397 682.515ZM273.208 691.111C273.208 692.119 273.74 692.651 274.748 692.651H276.568C277.576 692.651 278.108 692.119 278.108 691.111V683.327C278.108 682.067 277.884 679.911 277.884 679.911H277.94C277.94 679.911 278.836 682.011 279.62 683.327L284.576 691.615C284.996 692.343 285.556 692.651 286.396 692.651H288.58C289.588 692.651 290.12 692.119 290.12 691.111V674.171C290.12 673.163 289.588 672.631 288.58 672.631H286.76C285.752 672.631 285.22 673.163 285.22 674.171V681.983C285.22 683.243 285.444 685.399 285.444 685.399H285.388C285.388 685.399 284.492 683.299 283.708 681.983L278.78 673.667C278.36 672.939 277.8 672.631 276.932 672.631H274.748C273.74 672.631 273.208 673.163 273.208 674.171V691.111ZM295.109 691.111C295.109 692.119 295.641 692.651 296.649 692.651H306.505C307.513 692.651 308.045 692.119 308.045 691.111V689.991C308.045 688.983 307.513 688.451 306.505 688.451H300.009V684.671H304.573C305.581 684.671 306.113 684.139 306.113 683.131V682.011C306.113 681.003 305.581 680.471 304.573 680.471H300.009V676.831H306.113C307.121 676.831 307.653 676.299 307.653 675.291V674.171C307.653 673.163 307.121 672.631 306.113 672.631H296.649C295.641 672.631 295.109 673.163 295.109 674.171V691.111ZM318.449 690.887C318.085 691.951 318.589 692.651 319.709 692.651H321.557C322.453 692.651 323.013 692.231 323.265 691.363L324.105 688.451H330.349L331.189 691.363C331.469 692.231 332.029 692.651 332.925 692.651H334.773C335.893 692.651 336.397 691.951 336.033 690.887L330.237 673.891C329.957 673.023 329.397 672.631 328.501 672.631H325.981C325.085 672.631 324.525 673.023 324.245 673.891L318.449 690.887ZM325.253 684.531L326.401 680.639C326.765 679.379 327.213 677.195 327.213 677.195H327.269C327.269 677.195 327.717 679.379 328.081 680.639L329.201 684.531H325.253ZM339.457 691.111C339.457 692.119 339.989 692.651 340.997 692.651H342.817C343.825 692.651 344.357 692.119 344.357 691.111V686.463H347.773C351.665 686.463 354.297 683.551 354.297 679.519C354.297 675.487 351.665 672.631 347.773 672.631H340.997C339.989 672.631 339.457 673.163 339.457 674.171V691.111ZM344.357 682.263V676.831H346.849C348.473 676.831 349.313 677.923 349.313 679.519C349.313 681.115 348.473 682.263 346.765 682.263H344.357ZM357.831 691.111C357.831 692.119 358.363 692.651 359.371 692.651H361.191C362.199 692.651 362.731 692.119 362.731 691.111V686.463H366.147C370.039 686.463 372.671 683.551 372.671 679.519C372.671 675.487 370.039 672.631 366.147 672.631H359.371C358.363 672.631 357.831 673.163 357.831 674.171V691.111ZM362.731 682.263V676.831H365.223C366.847 676.831 367.687 677.923 367.687 679.519C367.687 681.115 366.847 682.263 365.139 682.263H362.731Z" fill="#373737"/>
<path d="M391.314 689.705C390.247 689.99 385.287 690.393 385.001 689.326C384.715 688.259 389.212 686.127 390.279 685.841C391.346 685.555 392.443 686.188 392.729 687.255C393.014 688.322 392.381 689.419 391.314 689.705Z" fill="#CC9600"/>
<path d="M388.695 678.289C387.914 679.07 383.82 681.898 383.039 681.117C382.258 680.336 385.086 676.241 385.867 675.46C386.648 674.679 387.914 674.679 388.695 675.46C389.477 676.241 389.477 677.507 388.695 678.289Z" fill="#CC9600"/>
<path d="M542.418 342.706C542.808 342.316 543.442 342.316 543.832 342.706L553.418 352.292C554.048 352.922 553.602 353.999 552.711 353.999H533.539C532.648 353.999 532.202 352.922 532.832 352.292L542.418 342.706Z" fill="#373737"/>
<path d="M528.236 378.009C528.236 378.657 528.578 378.999 529.226 378.999H535.814C536.462 378.999 536.804 378.657 536.804 378.009V377.289C536.804 376.641 536.462 376.299 535.814 376.299H534.05V367.119C534.05 366.471 533.708 366.129 533.06 366.129H532.034C531.53 366.129 531.188 366.273 530.81 366.615L528.578 368.703C528.11 369.153 528.092 369.639 528.542 370.107L529.01 370.611C529.442 371.079 529.928 371.097 530.396 370.665L530.558 370.521C530.774 370.341 530.954 369.945 530.954 369.945H530.99C530.99 369.945 530.972 370.449 530.972 370.935V376.299H529.226C528.578 376.299 528.236 376.641 528.236 377.289V378.009ZM538.394 378.009C538.394 378.657 538.844 378.999 539.456 378.999H546.458C547.106 378.999 547.448 378.657 547.448 378.009V377.289C547.448 376.641 547.106 376.299 546.458 376.299H541.886C542.048 374.643 547.25 373.869 547.25 369.855C547.25 367.119 544.964 365.913 542.858 365.913C540.716 365.913 539.474 367.011 538.844 367.839C538.466 368.325 538.592 368.775 539.096 369.171L539.798 369.729C540.284 370.125 540.752 369.945 541.202 369.513C541.508 369.189 541.994 368.883 542.57 368.883C543.236 368.883 543.956 369.261 543.956 370.161C543.956 372.015 538.394 372.861 538.394 377.613V378.009ZM550.42 377.829C550.078 378.513 550.366 378.999 551.14 378.999H552.31C552.868 378.999 553.228 378.783 553.48 378.279L558.232 368.901C558.448 368.487 558.52 368.145 558.52 367.677V367.119C558.52 366.471 558.178 366.129 557.53 366.129H550.276C549.628 366.129 549.286 366.471 549.286 367.119V367.839C549.286 368.487 549.628 368.829 550.276 368.829H554.38C555.028 368.829 555.136 368.775 555.136 368.775V368.811C555.136 368.811 554.83 369.099 554.38 369.981L550.42 377.829Z" fill="#997000"/>
<rect x="513.125" y="331.999" width="60" height="58" rx="6" stroke="#CC9600" stroke-width="4"/>
<path d="M414.936 431.705C416.003 431.99 420.963 432.393 421.249 431.326C421.535 430.259 417.038 428.127 415.971 427.841C414.904 427.555 413.807 428.188 413.521 429.255C413.236 430.322 413.869 431.419 414.936 431.705Z" fill="#CC9600"/>
<path d="M417.555 420.289C418.336 421.07 422.43 423.898 423.211 423.117C423.992 422.336 421.164 418.241 420.383 417.46C419.602 416.679 418.336 416.679 417.555 417.46C416.773 418.241 416.773 419.507 417.555 420.289Z" fill="#CC9600"/>
<path d="M434.299 432.999C435.363 433.839 437.855 434.987 440.655 434.987C445.163 434.987 447.683 432.103 447.683 428.743C447.683 422.415 438.835 423.115 438.835 420.203C438.835 419.419 439.479 418.803 441.019 418.803C442.335 418.803 443.259 419.279 444.183 419.727C444.967 420.119 445.723 420.287 446.283 419.195L446.955 417.879C447.375 417.067 447.291 416.367 446.479 415.779C445.527 415.107 443.399 414.295 441.075 414.295C437.015 414.295 433.935 416.731 433.935 420.427C433.935 426.699 442.783 426.251 442.783 429.079C442.783 429.863 442.111 430.479 440.655 430.479C438.919 430.479 437.659 429.583 437.015 429.247C436.091 428.743 435.447 428.799 434.887 429.611L434.019 430.871C433.291 431.907 433.711 432.523 434.299 432.999ZM451.081 433.055C450.997 434.063 451.529 434.651 452.537 434.651H454.385C455.365 434.651 455.897 434.147 455.981 433.167L456.485 425.635C456.597 424.123 456.485 422.275 456.485 422.275H456.541C456.541 422.275 457.213 424.375 457.661 425.635L459.313 430.199C459.621 431.039 460.181 431.431 461.077 431.431H462.645C463.541 431.431 464.101 431.039 464.409 430.199L466.061 425.635C466.509 424.375 467.181 422.275 467.181 422.275H467.237C467.237 422.275 467.125 424.123 467.237 425.635L467.741 433.167C467.825 434.147 468.357 434.651 469.337 434.651H471.157C472.165 434.651 472.697 434.063 472.613 433.055L471.241 416.115C471.157 415.135 470.625 414.631 469.645 414.631H467.125C466.229 414.631 465.669 415.023 465.389 415.891L462.897 423.087C462.449 424.375 461.889 426.391 461.889 426.391H461.833C461.833 426.391 461.273 424.375 460.825 423.087L458.333 415.891C458.053 415.023 457.493 414.631 456.597 414.631H454.077C453.097 414.631 452.565 415.135 452.481 416.115L451.081 433.055ZM475.448 432.887C475.084 433.951 475.588 434.651 476.708 434.651H478.556C479.452 434.651 480.012 434.231 480.264 433.363L481.104 430.451H487.348L488.188 433.363C488.468 434.231 489.028 434.651 489.924 434.651H491.772C492.892 434.651 493.396 433.951 493.032 432.887L487.236 415.891C486.956 415.023 486.396 414.631 485.5 414.631H482.98C482.084 414.631 481.524 415.023 481.244 415.891L475.448 432.887ZM482.252 426.531L483.4 422.639C483.764 421.379 484.212 419.195 484.212 419.195H484.268C484.268 419.195 484.716 421.379 485.08 422.639L486.2 426.531H482.252ZM496.456 433.111C496.456 434.119 496.988 434.651 497.996 434.651H499.816C500.824 434.651 501.356 434.119 501.356 433.111V427.903H503.652L506.62 433.559C507.04 434.315 507.6 434.651 508.44 434.651H510.568C511.772 434.651 512.248 433.867 511.632 432.803L508.776 427.651C508.3 426.811 508.02 426.447 508.02 426.447V426.391C510.008 425.383 511.016 423.059 511.016 420.931C511.016 418.019 509.588 415.975 507.32 415.107C506.452 414.771 505.472 414.631 503.428 414.631H497.996C496.988 414.631 496.456 415.163 496.456 416.171V433.111ZM501.356 423.703V418.831H503.008C503.82 418.831 504.408 418.915 504.856 419.111C505.78 419.475 506.032 420.231 506.032 421.239C506.032 422.835 505.052 423.703 503.484 423.703H501.356ZM519.416 433.111C519.416 434.119 519.948 434.651 520.956 434.651H522.776C523.784 434.651 524.316 434.119 524.316 433.111V418.831H528.852C529.86 418.831 530.392 418.299 530.392 417.291V416.171C530.392 415.163 529.86 414.631 528.852 414.631H514.88C513.872 414.631 513.34 415.163 513.34 416.171V417.291C513.34 418.299 513.872 418.831 514.88 418.831H519.416V433.111ZM541.37 432.999C542.434 433.839 544.926 434.987 547.726 434.987C552.234 434.987 554.754 432.103 554.754 428.743C554.754 422.415 545.906 423.115 545.906 420.203C545.906 419.419 546.55 418.803 548.09 418.803C549.406 418.803 550.33 419.279 551.254 419.727C552.038 420.119 552.794 420.287 553.354 419.195L554.026 417.879C554.446 417.067 554.362 416.367 553.55 415.779C552.598 415.107 550.47 414.295 548.146 414.295C544.086 414.295 541.006 416.731 541.006 420.427C541.006 426.699 549.854 426.251 549.854 429.079C549.854 429.863 549.182 430.479 547.726 430.479C545.99 430.479 544.73 429.583 544.086 429.247C543.162 428.743 542.518 428.799 541.958 429.611L541.09 430.871C540.362 431.907 540.782 432.523 541.37 432.999ZM558.741 433.111C558.741 434.119 559.273 434.651 560.281 434.651H570.137C571.145 434.651 571.677 434.119 571.677 433.111V431.991C571.677 430.983 571.145 430.451 570.137 430.451H563.641V426.671H568.205C569.213 426.671 569.745 426.139 569.745 425.131V424.011C569.745 423.003 569.213 422.471 568.205 422.471H563.641V418.831H569.745C570.753 418.831 571.285 418.299 571.285 417.291V416.171C571.285 415.163 570.753 414.631 569.745 414.631H560.281C559.273 414.631 558.741 415.163 558.741 416.171V433.111ZM573.961 432.887C573.597 433.951 574.101 434.651 575.221 434.651H577.069C577.965 434.651 578.525 434.231 578.777 433.363L579.617 430.451H585.861L586.701 433.363C586.981 434.231 587.541 434.651 588.437 434.651H590.285C591.405 434.651 591.909 433.951 591.545 432.887L585.749 415.891C585.469 415.023 584.909 414.631 584.013 414.631H581.493C580.597 414.631 580.037 415.023 579.757 415.891L573.961 432.887ZM580.765 426.531L581.913 422.639C582.277 421.379 582.725 419.195 582.725 419.195H582.781C582.781 419.195 583.229 421.379 583.593 422.639L584.713 426.531H580.765ZM594.969 433.111C594.969 434.119 595.501 434.651 596.509 434.651H598.329C599.337 434.651 599.869 434.119 599.869 433.111V427.903H602.165L605.133 433.559C605.553 434.315 606.113 434.651 606.953 434.651H609.081C610.285 434.651 610.761 433.867 610.145 432.803L607.289 427.651C606.813 426.811 606.533 426.447 606.533 426.447V426.391C608.521 425.383 609.529 423.059 609.529 420.931C609.529 418.019 608.101 415.975 605.833 415.107C604.965 414.771 603.985 414.631 601.941 414.631H596.509C595.501 414.631 594.969 415.163 594.969 416.171V433.111ZM599.869 423.703V418.831H601.521C602.333 418.831 602.921 418.915 603.369 419.111C604.293 419.475 604.545 420.231 604.545 421.239C604.545 422.835 603.565 423.703 601.997 423.703H599.869ZM612.772 424.599C612.772 430.535 616.832 434.987 623.272 434.987C626.66 434.987 629.012 433.587 630.272 432.607C631.028 432.019 631.056 431.235 630.524 430.451L629.74 429.359C629.152 428.519 628.424 428.491 627.584 429.079C626.632 429.751 625.176 430.507 623.496 430.507C619.632 430.507 617.84 427.455 617.84 424.487C617.84 421.603 619.492 418.775 623.496 418.775C624.98 418.775 626.296 419.363 627.22 419.895C628.088 420.427 628.788 420.343 629.32 419.475L630.02 418.327C630.524 417.515 630.468 416.759 629.684 416.199C628.508 415.387 626.352 414.295 623.272 414.295C617.084 414.295 612.772 418.775 612.772 424.599ZM634.506 433.111C634.506 434.119 635.038 434.651 636.046 434.651H637.866C638.874 434.651 639.406 434.119 639.406 433.111V426.811H646.686V433.111C646.686 434.119 647.218 434.651 648.226 434.651H650.046C651.054 434.651 651.586 434.119 651.586 433.111V416.171C651.586 415.163 651.054 414.631 650.046 414.631H648.226C647.218 414.631 646.686 415.163 646.686 416.171V422.639H639.406V416.171C639.406 415.163 638.874 414.631 637.866 414.631H636.046C635.038 414.631 634.506 415.163 634.506 416.171V433.111Z" fill="#373737"/>
<path d="M671.314 431.705C670.247 431.99 665.287 432.393 665.001 431.326C664.715 430.259 669.212 428.127 670.279 427.841C671.346 427.555 672.443 428.188 672.729 429.255C673.014 430.322 672.381 431.419 671.314 431.705Z" fill="#CC9600"/>
<path d="M668.695 420.289C667.914 421.07 663.82 423.898 663.039 423.117C662.258 422.336 665.086 418.241 665.867 417.46C666.648 416.679 667.914 416.679 668.695 417.46C669.477 418.241 669.477 419.507 668.695 420.289Z" fill="#CC9600"/>
<path d="M349.918 85.7071C350.308 85.3166 350.942 85.3166 351.332 85.7071L360.918 95.2929C361.548 95.9229 361.102 97 360.211 97H341.039C340.148 97 339.702 95.9229 340.332 95.2929L349.918 85.7071Z" fill="#373737"/>
<path d="M334.951 121.118C335.671 121.604 336.895 122.216 338.641 122.216C341.863 122.216 343.411 120.02 343.411 117.824C343.411 116.024 342.205 114.512 340.297 114.098L342.457 111.614C342.781 111.236 342.907 110.894 342.907 110.39V110.102C342.907 109.472 342.565 109.13 341.917 109.13H335.779C335.131 109.13 334.789 109.472 334.789 110.12V110.84C334.789 111.488 335.131 111.83 335.779 111.83H337.867C338.677 111.83 339.091 111.74 339.091 111.74V111.776C339.091 111.776 338.587 112.244 337.975 112.982L336.805 114.404C336.445 114.818 336.355 115.268 336.571 115.682L336.661 115.862C336.913 116.366 337.201 116.546 337.777 116.546H337.849C339.235 116.546 340.243 116.96 340.243 117.968C340.243 118.67 339.577 119.246 338.407 119.246C337.687 119.246 337.057 118.976 336.571 118.706C336.013 118.364 335.563 118.4 335.221 118.958L334.735 119.75C334.411 120.272 334.447 120.758 334.951 121.118ZM346.137 118.886H350.853V121.01C350.853 121.658 351.195 122 351.843 122H352.977C353.625 122 353.967 121.658 353.967 121.01V118.886H354.741C355.227 118.886 355.497 118.544 355.497 117.896V117.266C355.497 116.618 355.155 116.276 354.507 116.276H353.967V110.12C353.967 109.472 353.625 109.13 352.977 109.13H350.889C350.349 109.13 349.989 109.328 349.701 109.778L345.507 116.42C345.237 116.816 345.147 117.158 345.147 117.644V117.896C345.147 118.544 345.489 118.886 346.137 118.886ZM348.351 116.276V116.24L350.295 113.288C350.655 112.748 350.925 111.956 350.925 111.956H350.961C350.961 111.956 350.853 112.694 350.853 113.396V116.276H348.351ZM357.477 121.01C357.477 121.658 357.927 122 358.539 122H365.541C366.189 122 366.531 121.658 366.531 121.01V120.29C366.531 119.642 366.189 119.3 365.541 119.3H360.969C361.131 117.644 366.333 116.87 366.333 112.856C366.333 110.12 364.047 108.914 361.941 108.914C359.799 108.914 358.557 110.012 357.927 110.84C357.549 111.326 357.675 111.776 358.179 112.172L358.881 112.73C359.367 113.126 359.835 112.946 360.285 112.514C360.591 112.19 361.077 111.884 361.653 111.884C362.319 111.884 363.039 112.262 363.039 113.162C363.039 115.016 357.477 115.862 357.477 120.614V121.01Z" fill="#997000"/>
<rect x="319.625" y="75" width="62" height="58" rx="6" stroke="#CC9600" stroke-width="4"/>
<path d="M189.936 174.706C191.003 174.991 195.963 175.394 196.249 174.327C196.535 173.26 192.038 171.128 190.971 170.842C189.904 170.556 188.807 171.189 188.521 172.256C188.236 173.323 188.869 174.42 189.936 174.706Z" fill="#CC9600"/>
<path d="M192.555 163.29C193.336 164.071 197.43 166.899 198.211 166.118C198.992 165.337 196.164 161.242 195.383 160.461C194.602 159.68 193.336 159.68 192.555 160.461C191.773 161.242 191.773 162.508 192.555 163.29Z" fill="#CC9600"/>
<path d="M209.557 176.112C209.557 177.12 210.089 177.652 211.097 177.652H212.917C213.925 177.652 214.457 177.12 214.457 176.112V170.232H219.021C220.029 170.232 220.561 169.7 220.561 168.692V167.572C220.561 166.564 220.029 166.032 219.021 166.032H214.457V161.832H220.281C221.289 161.832 221.821 161.3 221.821 160.292V159.172C221.821 158.164 221.289 157.632 220.281 157.632H211.097C210.089 157.632 209.557 158.164 209.557 159.172V176.112ZM222.645 175.888C222.281 176.952 222.785 177.652 223.905 177.652H225.753C226.649 177.652 227.209 177.232 227.461 176.364L228.301 173.452H234.545L235.385 176.364C235.665 177.232 236.225 177.652 237.121 177.652H238.969C240.089 177.652 240.593 176.952 240.229 175.888L234.433 158.892C234.153 158.024 233.593 157.632 232.697 157.632H230.177C229.281 157.632 228.721 158.024 228.441 158.892L222.645 175.888ZM229.449 169.532L230.597 165.64C230.961 164.38 231.409 162.196 231.409 162.196H231.465C231.465 162.196 231.913 164.38 232.277 165.64L233.397 169.532H229.449ZM242.234 167.6C242.234 173.536 246.294 177.988 252.734 177.988C256.122 177.988 258.474 176.588 259.734 175.608C260.49 175.02 260.518 174.236 259.986 173.452L259.202 172.36C258.614 171.52 257.886 171.492 257.046 172.08C256.094 172.752 254.638 173.508 252.958 173.508C249.094 173.508 247.302 170.456 247.302 167.488C247.302 164.604 248.954 161.776 252.958 161.776C254.442 161.776 255.758 162.364 256.682 162.896C257.55 163.428 258.25 163.344 258.782 162.476L259.482 161.328C259.986 160.516 259.93 159.76 259.146 159.2C257.97 158.388 255.814 157.296 252.734 157.296C246.546 157.296 242.234 161.776 242.234 167.6ZM263.968 176.112C263.968 177.12 264.5 177.652 265.508 177.652H275.364C276.372 177.652 276.904 177.12 276.904 176.112V174.992C276.904 173.984 276.372 173.452 275.364 173.452H268.868V169.672H273.432C274.44 169.672 274.972 169.14 274.972 168.132V167.012C274.972 166.004 274.44 165.472 273.432 165.472H268.868V161.832H274.972C275.98 161.832 276.512 161.3 276.512 160.292V159.172C276.512 158.164 275.98 157.632 274.972 157.632H265.508C264.5 157.632 263.968 158.164 263.968 159.172V176.112ZM288.876 176.112C288.876 177.12 289.408 177.652 290.416 177.652H292.236C293.244 177.652 293.776 177.12 293.776 176.112V170.904H296.072L299.04 176.56C299.46 177.316 300.02 177.652 300.86 177.652H302.988C304.192 177.652 304.668 176.868 304.052 175.804L301.196 170.652C300.72 169.812 300.44 169.448 300.44 169.448V169.392C302.428 168.384 303.436 166.06 303.436 163.932C303.436 161.02 302.008 158.976 299.74 158.108C298.872 157.772 297.892 157.632 295.848 157.632H290.416C289.408 157.632 288.876 158.164 288.876 159.172V176.112ZM293.776 166.704V161.832H295.428C296.24 161.832 296.828 161.916 297.276 162.112C298.2 162.476 298.452 163.232 298.452 164.24C298.452 165.836 297.472 166.704 295.904 166.704H293.776ZM307.906 176.112C307.906 177.12 308.438 177.652 309.446 177.652H319.302C320.31 177.652 320.842 177.12 320.842 176.112V174.992C320.842 173.984 320.31 173.452 319.302 173.452H312.806V169.672H317.37C318.378 169.672 318.91 169.14 318.91 168.132V167.012C318.91 166.004 318.378 165.472 317.37 165.472H312.806V161.832H318.91C319.918 161.832 320.45 161.3 320.45 160.292V159.172C320.45 158.164 319.918 157.632 318.91 157.632H309.446C308.438 157.632 307.906 158.164 307.906 159.172V176.112ZM323.193 167.6C323.193 173.536 327.253 177.988 333.693 177.988C337.081 177.988 339.433 176.588 340.693 175.608C341.449 175.02 341.477 174.236 340.945 173.452L340.161 172.36C339.573 171.52 338.845 171.492 338.005 172.08C337.053 172.752 335.597 173.508 333.917 173.508C330.053 173.508 328.261 170.456 328.261 167.488C328.261 164.604 329.913 161.776 333.917 161.776C335.401 161.776 336.717 162.364 337.641 162.896C338.509 163.428 339.209 163.344 339.741 162.476L340.441 161.328C340.945 160.516 340.889 159.76 340.105 159.2C338.929 158.388 336.773 157.296 333.693 157.296C327.505 157.296 323.193 161.776 323.193 167.6ZM343.481 167.516C343.481 173.396 347.737 177.988 353.953 177.988C360.169 177.988 364.425 173.396 364.425 167.516C364.425 161.776 360.169 157.296 353.953 157.296C347.737 157.296 343.481 161.776 343.481 167.516ZM348.549 167.516C348.549 164.24 350.789 161.776 353.953 161.776C357.117 161.776 359.357 164.24 359.357 167.516C359.357 170.932 357.117 173.508 353.953 173.508C350.789 173.508 348.549 170.932 348.549 167.516ZM367.324 167.768C367.324 174.068 372.028 177.988 377.18 177.988C380.736 177.988 382.5 176.112 382.5 176.112H382.556C382.556 176.112 382.528 176.224 382.528 176.392V176.448C382.528 177.12 383.06 177.652 384.068 177.652H384.992C386 177.652 386.532 177.12 386.532 176.112V167.88C386.532 166.872 386 166.34 384.992 166.34H380.904C379.896 166.34 379.364 166.872 379.364 167.88V168.972C379.364 169.98 379.896 170.512 380.904 170.512H382.192V171.884C382.192 171.884 380.932 173.508 378.076 173.508C375.024 173.508 372.392 171.184 372.392 167.488C372.392 164.464 374.156 161.776 378.16 161.776C379.896 161.776 380.96 162.28 381.884 162.756C382.808 163.232 383.48 163.176 384.012 162.336L384.74 161.188C385.272 160.32 385.188 159.676 384.348 159.06C383.536 158.472 381.044 157.296 377.852 157.296C371.72 157.296 367.324 161.664 367.324 167.768ZM390.726 176.112C390.726 177.12 391.258 177.652 392.266 177.652H394.086C395.094 177.652 395.626 177.12 395.626 176.112V168.328C395.626 167.068 395.402 164.912 395.402 164.912H395.458C395.458 164.912 396.354 167.012 397.138 168.328L402.094 176.616C402.514 177.344 403.074 177.652 403.914 177.652H406.098C407.106 177.652 407.638 177.12 407.638 176.112V159.172C407.638 158.164 407.106 157.632 406.098 157.632H404.278C403.27 157.632 402.738 158.164 402.738 159.172V166.984C402.738 168.244 402.962 170.4 402.962 170.4H402.906C402.906 170.4 402.01 168.3 401.226 166.984L396.298 158.668C395.878 157.94 395.318 157.632 394.45 157.632H392.266C391.258 157.632 390.726 158.164 390.726 159.172V176.112ZM412.627 176.112C412.627 177.12 413.159 177.652 414.167 177.652H415.987C416.995 177.652 417.527 177.12 417.527 176.112V159.172C417.527 158.164 416.995 157.632 415.987 157.632H414.167C413.159 157.632 412.627 158.164 412.627 159.172V176.112ZM426.837 176.112C426.837 177.12 427.369 177.652 428.377 177.652H430.197C431.205 177.652 431.737 177.12 431.737 176.112V161.832H436.273C437.281 161.832 437.813 161.3 437.813 160.292V159.172C437.813 158.164 437.281 157.632 436.273 157.632H422.301C421.293 157.632 420.761 158.164 420.761 159.172V160.292C420.761 161.3 421.293 161.832 422.301 161.832H426.837V176.112ZM441.035 176.112C441.035 177.12 441.567 177.652 442.575 177.652H444.395C445.403 177.652 445.935 177.12 445.935 176.112V159.172C445.935 158.164 445.403 157.632 444.395 157.632H442.575C441.567 157.632 441.035 158.164 441.035 159.172V176.112ZM449.897 167.516C449.897 173.396 454.153 177.988 460.369 177.988C466.585 177.988 470.841 173.396 470.841 167.516C470.841 161.776 466.585 157.296 460.369 157.296C454.153 157.296 449.897 161.776 449.897 167.516ZM454.965 167.516C454.965 164.24 457.205 161.776 460.369 161.776C463.533 161.776 465.773 164.24 465.773 167.516C465.773 170.932 463.533 173.508 460.369 173.508C457.205 173.508 454.965 170.932 454.965 167.516ZM474.775 176.112C474.775 177.12 475.307 177.652 476.315 177.652H478.135C479.143 177.652 479.675 177.12 479.675 176.112V168.328C479.675 167.068 479.451 164.912 479.451 164.912H479.507C479.507 164.912 480.403 167.012 481.187 168.328L486.143 176.616C486.563 177.344 487.123 177.652 487.963 177.652H490.147C491.155 177.652 491.687 177.12 491.687 176.112V159.172C491.687 158.164 491.155 157.632 490.147 157.632H488.327C487.319 157.632 486.787 158.164 486.787 159.172V166.984C486.787 168.244 487.011 170.4 487.011 170.4H486.955C486.955 170.4 486.059 168.3 485.275 166.984L480.347 158.668C479.927 157.94 479.367 157.632 478.499 157.632H476.315C475.307 157.632 474.775 158.164 474.775 159.172V176.112Z" fill="#373737"/>
<path d="M511.314 174.706C510.247 174.991 505.287 175.394 505.001 174.327C504.715 173.26 509.212 171.128 510.279 170.842C511.346 170.556 512.443 171.189 512.729 172.256C513.014 173.323 512.381 174.42 511.314 174.706Z" fill="#CC9600"/>
<path d="M508.695 163.29C507.914 164.071 503.82 166.899 503.039 166.118C502.258 165.337 505.086 161.242 505.867 160.461C506.648 159.68 507.914 159.68 508.695 160.461C509.477 161.242 509.477 162.508 508.695 163.29Z" fill="#CC9600"/>
<path d="M847.418 537.707C847.808 537.317 848.442 537.317 848.832 537.707L858.418 547.293C859.048 547.923 858.602 549 857.711 549H838.539C837.648 549 837.202 547.923 837.832 547.293L847.418 537.707Z" fill="#373737"/>
<path d="M832.929 573.01C832.929 573.658 833.271 574 833.919 574H840.507C841.155 574 841.497 573.658 841.497 573.01V572.29C841.497 571.642 841.155 571.3 840.507 571.3H838.743V562.12C838.743 561.472 838.401 561.13 837.753 561.13H836.727C836.223 561.13 835.881 561.274 835.503 561.616L833.271 563.704C832.803 564.154 832.785 564.64 833.235 565.108L833.703 565.612C834.135 566.08 834.621 566.098 835.089 565.666L835.251 565.522C835.467 565.342 835.647 564.946 835.647 564.946H835.683C835.683 564.946 835.665 565.45 835.665 565.936V571.3H833.919C833.271 571.3 832.929 571.642 832.929 572.29V573.01ZM843.086 573.01C843.086 573.658 843.536 574 844.148 574H851.15C851.798 574 852.14 573.658 852.14 573.01V572.29C852.14 571.642 851.798 571.3 851.15 571.3H846.578C846.74 569.644 851.942 568.87 851.942 564.856C851.942 562.12 849.656 560.914 847.55 560.914C845.408 560.914 844.166 562.012 843.536 562.84C843.158 563.326 843.284 563.776 843.788 564.172L844.49 564.73C844.976 565.126 845.444 564.946 845.894 564.514C846.2 564.19 846.686 563.884 847.262 563.884C847.928 563.884 848.648 564.262 848.648 565.162C848.648 567.016 843.086 567.862 843.086 572.614V573.01ZM854.248 573.01C854.248 573.658 854.698 574 855.31 574H862.312C862.96 574 863.302 573.658 863.302 573.01V572.29C863.302 571.642 862.96 571.3 862.312 571.3H857.74C857.902 569.644 863.104 568.87 863.104 564.856C863.104 562.12 860.818 560.914 858.712 560.914C856.57 560.914 855.328 562.012 854.698 562.84C854.32 563.326 854.446 563.776 854.95 564.172L855.652 564.73C856.138 565.126 856.606 564.946 857.056 564.514C857.362 564.19 857.848 563.884 858.424 563.884C859.09 563.884 859.81 564.262 859.81 565.162C859.81 567.016 854.248 567.862 854.248 572.614V573.01Z" fill="#997000"/>
<rect x="818.125" y="527" width="60" height="58" rx="6" stroke="#CC9600" stroke-width="4"/>
<path d="M751.936 626.706C753.003 626.991 757.963 627.394 758.249 626.327C758.535 625.26 754.038 623.128 752.971 622.842C751.904 622.556 750.807 623.189 750.521 624.256C750.236 625.323 750.869 626.42 751.936 626.706Z" fill="#CC9600"/>
<path d="M754.555 615.29C755.336 616.071 759.43 618.899 760.211 618.118C760.992 617.337 758.164 613.242 757.383 612.461C756.602 611.68 755.336 611.68 754.555 612.461C753.773 613.242 753.773 614.508 754.555 615.29Z" fill="#CC9600"/>
<path d="M771.886 628.112C771.886 629.12 772.418 629.652 773.426 629.652H775.246C776.254 629.652 776.786 629.12 776.786 628.112V622.232H781.35C782.358 622.232 782.89 621.7 782.89 620.692V619.572C782.89 618.564 782.358 618.032 781.35 618.032H776.786V613.832H782.61C783.618 613.832 784.15 613.3 784.15 612.292V611.172C784.15 610.164 783.618 609.632 782.61 609.632H773.426C772.418 609.632 771.886 610.164 771.886 611.172V628.112ZM784.973 627.888C784.609 628.952 785.113 629.652 786.233 629.652H788.081C788.977 629.652 789.537 629.232 789.789 628.364L790.629 625.452H796.873L797.713 628.364C797.993 629.232 798.553 629.652 799.449 629.652H801.297C802.417 629.652 802.921 628.952 802.557 627.888L796.761 610.892C796.481 610.024 795.921 609.632 795.025 609.632H792.505C791.609 609.632 791.049 610.024 790.769 610.892L784.973 627.888ZM791.777 621.532L792.925 617.64C793.289 616.38 793.737 614.196 793.737 614.196H793.793C793.793 614.196 794.241 616.38 794.605 617.64L795.725 621.532H791.777ZM809.309 628.42C809.617 629.26 810.177 629.652 811.073 629.652H813.537C814.433 629.652 814.993 629.26 815.301 628.42L821.293 611.396C821.657 610.332 821.181 609.632 820.033 609.632H818.017C817.093 609.632 816.533 610.052 816.281 610.92L813.089 621.028C812.697 622.288 812.333 624.248 812.333 624.248H812.277C812.277 624.248 811.913 622.288 811.521 621.028L808.385 610.92C808.133 610.052 807.573 609.632 806.649 609.632H804.549C803.401 609.632 802.925 610.332 803.289 611.396L809.309 628.42ZM823.237 619.516C823.237 625.396 827.493 629.988 833.709 629.988C839.925 629.988 844.181 625.396 844.181 619.516C844.181 613.776 839.925 609.296 833.709 609.296C827.493 609.296 823.237 613.776 823.237 619.516ZM828.305 619.516C828.305 616.24 830.545 613.776 833.709 613.776C836.873 613.776 839.113 616.24 839.113 619.516C839.113 622.932 836.873 625.508 833.709 625.508C830.545 625.508 828.305 622.932 828.305 619.516ZM848.116 628.112C848.116 629.12 848.648 629.652 849.656 629.652H851.476C852.484 629.652 853.016 629.12 853.016 628.112V622.904H855.312L858.28 628.56C858.7 629.316 859.26 629.652 860.1 629.652H862.228C863.432 629.652 863.908 628.868 863.292 627.804L860.436 622.652C859.96 621.812 859.68 621.448 859.68 621.448V621.392C861.668 620.384 862.676 618.06 862.676 615.932C862.676 613.02 861.248 610.976 858.98 610.108C858.112 609.772 857.132 609.632 855.088 609.632H849.656C848.648 609.632 848.116 610.164 848.116 611.172V628.112ZM853.016 618.704V613.832H854.668C855.48 613.832 856.068 613.916 856.516 614.112C857.44 614.476 857.692 615.232 857.692 616.24C857.692 617.836 856.712 618.704 855.144 618.704H853.016ZM867.146 628.112C867.146 629.12 867.678 629.652 868.686 629.652H870.506C871.514 629.652 872.046 629.12 872.046 628.112V611.172C872.046 610.164 871.514 609.632 870.506 609.632H868.686C867.678 609.632 867.146 610.164 867.146 611.172V628.112ZM881.355 628.112C881.355 629.12 881.887 629.652 882.895 629.652H884.715C885.723 629.652 886.255 629.12 886.255 628.112V613.832H890.791C891.799 613.832 892.331 613.3 892.331 612.292V611.172C892.331 610.164 891.799 609.632 890.791 609.632H876.819C875.811 609.632 875.279 610.164 875.279 611.172V612.292C875.279 613.3 875.811 613.832 876.819 613.832H881.355V628.112ZM895.554 628.112C895.554 629.12 896.086 629.652 897.094 629.652H906.95C907.958 629.652 908.49 629.12 908.49 628.112V626.992C908.49 625.984 907.958 625.452 906.95 625.452H900.454V621.672H905.018C906.026 621.672 906.558 621.14 906.558 620.132V619.012C906.558 618.004 906.026 617.472 905.018 617.472H900.454V613.832H906.558C907.566 613.832 908.098 613.3 908.098 612.292V611.172C908.098 610.164 907.566 609.632 906.558 609.632H897.094C896.086 609.632 895.554 610.164 895.554 611.172V628.112ZM911.978 628C913.042 628.84 915.534 629.988 918.334 629.988C922.842 629.988 925.362 627.104 925.362 623.744C925.362 617.416 916.514 618.116 916.514 615.204C916.514 614.42 917.158 613.804 918.698 613.804C920.014 613.804 920.938 614.28 921.862 614.728C922.646 615.12 923.402 615.288 923.962 614.196L924.634 612.88C925.054 612.068 924.97 611.368 924.158 610.78C923.206 610.108 921.078 609.296 918.754 609.296C914.694 609.296 911.614 611.732 911.614 615.428C911.614 621.7 920.462 621.252 920.462 624.08C920.462 624.864 919.79 625.48 918.334 625.48C916.598 625.48 915.338 624.584 914.694 624.248C913.77 623.744 913.126 623.8 912.566 624.612L911.698 625.872C910.97 626.908 911.39 627.524 911.978 628Z" fill="#373737"/>
<path d="M944.314 626.706C943.247 626.991 938.287 627.394 938.001 626.327C937.715 625.26 942.212 623.128 943.279 622.842C944.346 622.556 945.443 623.189 945.729 624.256C946.014 625.323 945.381 626.42 944.314 626.706Z" fill="#CC9600"/>
<path d="M941.695 615.29C940.914 616.071 936.82 618.899 936.039 618.118C935.258 617.337 938.086 613.242 938.867 612.461C939.648 611.68 940.914 611.68 941.695 612.461C942.477 613.242 942.477 614.508 941.695 615.29Z" fill="#CC9600"/>
<path d="M361 56.4994C491.5 -157 659 348 797 161.5" stroke="#997000" stroke-width="5" stroke-miterlimit="16" stroke-linecap="round" stroke-linejoin="round" stroke-dasharray="2 24"/>
<path d="M286.5 567.501C385.5 385 715.5 854 845.5 655.5" stroke="#997000" stroke-width="5" stroke-miterlimit="16" stroke-linecap="round" stroke-linejoin="round" stroke-dasharray="2 24"/>
<path d="M559 463.999C630.5 619.499 801 392.499 841 496.499" stroke="#997000" stroke-width="5" stroke-miterlimit="16" stroke-linecap="round" stroke-linejoin="round" stroke-dasharray="2 24"/>
</svg>
