<?xml version="1.0" encoding="UTF-8"?>
<svg width="129px" height="31px" viewBox="0 0 129 31" version="1.1" xmlns="http://www.w3.org/2000/svg"
    xmlns:xlink="http://www.w3.org/1999/xlink">
    <!-- Generator: Sketch 52.6 (67491) - http://www.bohemiancoding.com/sketch -->
    <title>signature_fille</title>
    <desc>Created with Sketch.</desc>
    <g id="start" stroke="none" stroke-width="1" fill="none" fill-rule="evenodd">
        <g id="start/large-copy-12" transform="translate(-179.000000, -4735.000000)" fill="#1c1c1c">
            <g id="section-support" transform="translate(0.000000, 4151.000000)">
                <g transform="translate(109.000000, 196.000000)" id="Stacked-Group">
                    <g transform="translate(0.000000, 125.000000)">
                        <g id="Group-18">
                            <g id="Stacked-Group"
                                transform="translate(137.450869, 205.824112) rotate(2.000000) translate(-137.450869, -205.824112) translate(6.950869, 11.824112)">
                                <g id="photo-copy-18"
                                    transform="translate(130.500000, 150.000000) rotate(-360.000000) translate(-130.500000, -150.000000) ">
                                    <path
                                        d="M194,267.059172 C192.01469,267.446881 190.042656,267.931222 188.041656,268.204621 C182.891919,268.909331 177.718044,269.449059 172.571927,270.186766 C165.643255,271.180195 158.766479,272.712174 151.806428,273.247188 C144.481902,273.810485 137.084962,273.591294 129.723022,273.491126 C124.095362,273.413349 118.474943,272.976146 112.849697,272.725137 C110.043712,272.600222 107.235312,272.511838 104.426913,272.448202 C103.52055,272.428169 102.611773,272.540121 101.63179,272.595508 C101.479724,276.167375 103.399862,279.445809 102.308847,282.81027 C102.051782,282.873906 101.794718,282.936364 101.53886,283 C101.163522,281.958254 100.679565,280.938899 100.436983,279.867693 C99.9723362,277.808949 99.7297542,275.698354 99.2047634,273.65493 C99.0647658,273.110488 98.2585731,272.368068 97.7190997,272.33625 C92.243506,272.013356 86.7558434,271.861336 81.2790428,271.56319 C79.7644141,271.480699 79.4144203,272.130022 79.3818346,273.406278 C79.3226977,275.712495 79.1682177,278.016355 79.0535645,280.321394 L78.3439218,280.568868 C78.0204792,279.861801 77.4544546,279.167696 77.4206621,278.448845 C77.3434221,276.836732 77.4749715,275.206942 77.6270378,273.594829 C77.7658285,272.133557 77.227562,271.422955 75.687589,271.602079 C73.6057289,271.84366 71.5323169,272.185409 69.4444224,272.326822 C68.3268558,272.403421 67.1863585,272.150056 66.0567231,272.045174 C66.0374131,271.725815 66.01931,271.407635 66,271.088276 C67.7680725,270.724137 69.5325243,270.342321 71.3066312,270.007642 C71.7978295,269.914545 72.3179928,269.973467 72.8236736,269.941649 C75.4775927,269.770775 77.5703146,269.394851 79.2659746,266.588973 C81.3792135,263.092526 85.6250012,261.96004 89.6378619,261.106846 C91.1211118,260.791023 92.6140167,260.475199 94.1201972,260.327894 C97.0456633,260.04271 98.7678745,261.196408 99.605446,263.996394 C99.9687155,265.209014 100.255952,266.481734 100.30302,267.736778 C100.374226,269.695354 101.24921,270.442488 103.251417,270.47195 C109.682856,270.563868 116.111881,270.748884 122.538493,270.968075 C127.887365,271.150734 133.250719,271.831875 138.57304,271.576153 C145.97722,271.219084 153.353643,270.240974 160.732479,269.443167 C170.637306,268.37196 180.532477,267.200586 190.438511,266.129379 C191.586249,266.005643 192.773815,266.240153 193.943277,266.308503 C193.962587,266.558333 193.98069,266.808164 194,267.059172 Z M80.2157856,268.638289 C80.3895756,268.936436 80.5633657,269.234582 80.7371557,269.532729 C86.2018876,269.781381 91.6654126,270.053602 97.1325583,270.222119 C97.4825522,270.232725 98.200643,269.411349 98.1644368,269.030711 C97.9942673,267.283077 97.6647904,265.54487 97.3015209,263.820805 C97.0456633,262.609364 96.2105055,262.139164 94.9155281,262.192194 C90.7735317,262.360712 87.0334248,263.816091 83.4827973,265.706317 C82.2228194,266.376853 81.2959391,267.643681 80.2157856,268.638289 Z M91.2696782,254.517099 C90.5226223,255.014402 89.9215984,255.603625 89.740567,255.499922 C89.1250606,255.144031 88.6024835,254.580735 88.1897321,253.998583 C88.1245609,253.906664 88.9910974,252.941517 89.1238537,253.002797 C89.7791871,253.305657 90.3331429,253.819459 91.2696782,254.517099 Z"
                                        id="signature_fille"></path>
                                </g>
                            </g>
                        </g>
                    </g>
                </g>
            </g>
        </g>
    </g>
</svg>