<?xml version="1.0" encoding="UTF-8"?>
<svg width="133px" height="37px" viewBox="0 0 133 37" version="1.1" xmlns="http://www.w3.org/2000/svg" xmlns:xlink="http://www.w3.org/1999/xlink">
    <!-- Generator: Sketch 52.6 (67491) - http://www.bohemiancoding.com/sketch -->
    <title>signature_kristofer</title>
    <desc>Created with Sketch.</desc>
    <g id="start" stroke="none" stroke-width="1" fill="none" fill-rule="evenodd">
        <g id="start/large-copy-12" transform="translate(-492.000000, -4730.000000)" fill="#23545B">
            <g id="section-support" transform="translate(0.000000, 4151.000000)">
                <g transform="translate(109.000000, 196.000000)" id="Stacked-Group">
                    <g transform="translate(0.000000, 125.000000)">
                        <g id="Group-18">
                            <g id="Stacked-Group-2" transform="translate(446.890852, 198.932678) rotate(-362.000000) translate(-446.890852, -198.932678) translate(316.390852, 4.932678)">
                                <g id="photo-copy-19">
                                    <path d="M68.808852,267.307715 C70.1772139,266.161521 71.5990808,265.068178 72.903692,263.857023 C75.4616864,261.48426 77.9536532,259.043231 80.4774954,256.635234 C80.7666501,256.357769 81.0854033,255.882116 81.3848036,255.88652 C82.0655694,255.894227 82.7417815,256.143065 83.4202704,256.295009 C83.2791083,256.858747 83.3348901,257.62728 82.9683239,257.954292 C80.0688083,260.54066 77.0486219,263.002608 74.1468295,265.587874 C72.4790672,267.075393 70.9615744,268.721463 68.9420453,270.727577 C70.2751166,270.844289 70.9729584,270.967606 71.6685234,270.955495 C76.5147103,270.876219 81.2834856,270.388454 86.0363234,269.30502 C93.0261254,267.714002 100.190103,267.416719 107.36205,267.477277 C110.839875,267.508106 114.319977,267.53343 117.79894,267.562057 C120.389948,267.584078 120.843033,268.086157 120.924998,270.556914 C121.013794,273.247881 121.602349,275.836451 122.787427,278.252155 C123.024216,278.295096 123.261004,278.336936 123.496653,278.378776 C124.858185,275.628352 126.35291,272.928577 127.51522,270.103282 C127.994488,268.936168 128.430497,268.332793 129.747631,268.368026 C140.450908,268.658704 150.842262,266.007374 161.430559,265.217921 C164.285677,265.004318 167.153318,264.874394 170.016404,264.835857 C177.712017,264.730156 185.408768,264.672901 193.105519,264.651981 C194.350933,264.648678 195.80126,264.36791 197,266.206665 C194.388501,266.206665 192.182273,266.184644 189.977184,266.209968 C182.551373,266.294749 175.108486,266.135096 167.703167,266.565607 C160.995689,266.95648 154.32464,267.974951 147.642207,268.76 C142.24731,269.394205 136.864934,270.148425 131.463206,270.73088 C129.531334,270.938979 128.538646,271.933227 127.988796,273.573792 C127.026845,276.445332 126.108153,279.332286 125.055129,282.171894 C124.925351,282.522028 123.823375,282.944832 123.619601,282.788482 C122.789704,282.150974 121.848244,281.414372 121.470294,280.509308 C120.457114,278.081492 119.496301,275.595321 118.910023,273.04749 C118.027759,269.220239 118.17006,269.122246 114.067251,269.131054 C104.058401,269.154176 94.0939486,269.191612 84.2353678,271.599609 C79.4130875,272.777733 74.2561163,272.746903 69.236892,273.054097 C67.7182607,273.146585 67.1672731,273.547367 67.1012456,274.951206 C66.9714675,277.719247 66.8519351,280.494995 66.513829,283.241014 C66.3555908,284.523738 65.6975932,285.749207 65.2649996,287 L64.5398361,286.91632 C64.350861,285.814169 63.9137137,284.689996 64.0150317,283.613169 C64.6616453,276.667744 65.5131717,269.741036 66.1153875,262.792307 C66.3908814,259.605868 66.1848302,256.381992 66.3521756,253.183441 C66.3920198,252.41711 66.9441458,251.125578 67.4450437,251.035292 C68.7826687,250.796364 69.3211339,251.803825 69.2255079,253.052416 C68.9465989,256.669367 68.6506138,260.285216 68.3717047,263.903267 C68.2920164,264.93385 68.2464803,265.966636 68.1850064,266.99832 L68.808852,267.307715 Z M109.527978,259.246595 C108.044637,259.99641 106.870942,259.8808 106.233436,258.457142 C106.088859,258.134534 106.633016,257.139185 107.008689,257.051101 C108.662791,256.664632 109.352664,257.62695 109.527978,259.246595 Z" id="signature_kristofer"></path>
                                </g>
                            </g>
                        </g>
                    </g>
                </g>
            </g>
        </g>
    </g>
</svg>