<svg width="24" height="24" viewBox="0 0 24 24" fill="none" xmlns="http://www.w3.org/2000/svg">
    <path fill-rule="evenodd" clip-rule="evenodd"
        d="M15.839 9C16.1392 9 16.3717 9.2626 16.3353 9.56055L16.0913 11.5606C16.0607 11.8114 15.8477 12 15.595 12H14V18.5C14 18.7761 13.7761 19 13.5 19H10.5C10.2239 19 10 18.7761 10 18.5V12.068L8.5 12C8.22386 12 8 11.7761 8 11.5V9.5C8 9.22386 8.22386 9 8.5 9H10V8.336C10 6.39881 10.9135 5.017 13.1505 5.017L15.5015 5.024C15.777 5.02482 16 5.24844 16 5.524V7.831C16 8.10714 15.7761 8.331 15.5 8.331H14.092C14.0057 8.331 14 8.33564 14 8.478V9H15.839ZM13 9.5C13 9.77614 13.2239 10 13.5 10H15.2743L15.1523 11H13.5C13.2239 11 13 11.2239 13 11.5V18L11 18.1562V11.5C11 11.2239 10.7761 11 10.5 11H9V10H10.5C10.7761 10 11 9.77614 11 9.5V8.336C11 6.88514 11.5739 6.017 13.149 6.017L15 6.02251L15.1462 7.331H14.092C13.4925 7.331 13 7.73442 13 8.478V9.5Z"
        fill="#9B9691" />
    <path fill-rule="evenodd" clip-rule="evenodd"
        d="M0 12C0 18.6274 5.37258 24 12 24C18.6274 24 24 18.6274 24 12C24 5.37258 18.6274 0 12 0C5.37258 0 0 5.37258 0 12ZM23 12C23 18.0751 18.0751 23 12 23C5.92487 23 1 18.0751 1 12C1 5.92487 5.92487 1 12 1C18.0751 1 23 5.92487 23 12Z"
        fill="#9B9691" />
</svg>