<svg width="32" height="32" viewBox="0 0 32 32" fill="none" xmlns="http://www.w3.org/2000/svg">
<path d="M0 16H10.6667C10.6667 18.9455 13.0545 21.3333 16 21.3333C18.9455 21.3333 21.3333 18.9455 21.3333 16C21.3333 13.0545 18.9455 10.6667 16 10.6667V0C24.8366 0 32 7.16344 32 16C32 24.8366 24.8366 32 16 32C7.16344 32 0 24.8366 0 16Z" fill="url(#paint0_linear_7690_98836)"/>
<path d="M10.6667 16V28.5815C10.6667 29.7702 10.5429 30.2012 10.3105 30.6358C10.0781 31.0704 9.73703 31.4114 9.30246 31.6438C8.86789 31.8762 8.43684 32 7.24815 32H3.41851C2.22982 32 1.79877 31.8762 1.36421 31.6438C0.929638 31.4114 0.588586 31.0704 0.356177 30.6358C0.123767 30.2012 0 29.7702 0 28.5815L0 16C0 7.16344 7.16344 0 16 0C22.9665 0 28.8931 4.45231 31.0896 10.6667H16C13.0545 10.6667 10.6667 13.0545 10.6667 16Z" fill="#FFFAF5"/>
<defs>
<linearGradient id="paint0_linear_7690_98836" x1="9.88184" y1="41.8786" x2="29.6391" y2="22.115" gradientUnits="userSpaceOnUse">
<stop stop-color="#FFFAF5" stop-opacity="0.2"/>
<stop offset="1" stop-color="#FFFAF5"/>
</linearGradient>
</defs>
</svg>
