<svg width="32" height="32" viewBox="0 0 32 32" fill="none" xmlns="http://www.w3.org/2000/svg">
<path fill-rule="evenodd" clip-rule="evenodd" d="M8.20443 0L23.7956 0C26.6484 0 27.6829 0.297042 28.7259 0.854825C29.7689 1.41261 30.5874 2.23113 31.1452 3.27409C31.703 4.31706 32 5.35157 32 8.20443V23.7956C32 26.6484 31.703 27.6829 31.1452 28.7259C30.5874 29.7689 29.7689 30.5874 28.7259 31.1452C27.6829 31.703 26.6484 32 23.7956 32H8.20443C5.35157 32 4.31706 31.703 3.27409 31.1452C2.23113 30.5874 1.41261 29.7689 0.854825 28.7259C0.297042 27.6829 0 26.6484 0 23.7956L0 8.20443C0 5.35157 0.297042 4.31706 0.854825 3.27409C1.41261 2.23113 2.23113 1.41261 3.27409 0.854825C4.31706 0.297042 5.35157 0 8.20443 0Z" fill="url(#paint0_linear_7690_98808)"/>
<path d="M6.40002 15.9999H12.8C12.8 17.7672 14.2327 19.1999 16 19.1999C17.7673 19.1999 19.2 17.7672 19.2 15.9999C19.2 14.2326 17.7673 12.7999 16 12.7999V6.3999C21.302 6.3999 25.6 10.698 25.6 15.9999C25.6 21.3018 21.302 25.5999 16 25.5999C10.6981 25.5999 6.40002 21.3018 6.40002 15.9999Z" fill="url(#paint1_linear_7690_98808)"/>
<path d="M12.8 15.9999V23.5488C12.8 24.262 12.7258 24.5206 12.5863 24.7814C12.4469 25.0421 12.2422 25.2468 11.9815 25.3862C11.7208 25.5256 11.4621 25.5999 10.7489 25.5999H8.45113C7.73792 25.5999 7.47929 25.5256 7.21855 25.3862C6.95781 25.2468 6.75318 25.0421 6.61373 24.7814C6.47428 24.5206 6.40002 24.262 6.40002 23.5488L6.40002 15.9999C6.40002 10.698 10.6981 6.3999 16 6.3999C20.1799 6.3999 23.7359 9.07129 25.0538 12.7999H16C14.2327 12.7999 12.8 14.2326 12.8 15.9999Z" fill="#FFFAF5"/>
<defs>
<linearGradient id="paint0_linear_7690_98808" x1="32" y1="32" x2="9.53674e-07" y2="-9.53674e-07" gradientUnits="userSpaceOnUse">
<stop stop-color="#1F1C1E"/>
<stop offset="0.491675" stop-color="#212426"/>
<stop offset="1" stop-color="#272523"/>
</linearGradient>
<linearGradient id="paint1_linear_7690_98808" x1="12.3291" y1="31.5271" x2="24.1835" y2="19.6689" gradientUnits="userSpaceOnUse">
<stop stop-color="#FFFAF5" stop-opacity="0.2"/>
<stop offset="1" stop-color="#FFFAF5"/>
</linearGradient>
</defs>
</svg>
